<?xml version="1.0" encoding="utf-8"?>
<!-- Generator: Adobe Illustrator 16.0.0, SVG Export Plug-In . SVG Version: 6.00 Build 0)  -->
<!DOCTYPE svg PUBLIC "-//W3C//DTD SVG 1.0//EN" "http://www.w3.org/TR/2001/REC-SVG-20010904/DTD/svg10.dtd">
<svg version="1.0" id="Layer_1" xmlns="http://www.w3.org/2000/svg" xmlns:xlink="http://www.w3.org/1999/xlink" x="0px" y="0px"
   width="320.9px" height="320.9px" viewBox="29.2 31.2 320.9 320.9" style="enable-background:new 29.2 31.2 320.9 320.9;"
   xml:space="preserve">
<path fill="#444444" d="M189.6,347c-0.9,0-1.8-0.3-2.6-0.7L122.4,309h-0.1l-0.3-0.2l-65-37.6c-1.6-1-2.5-2.6-2.5-4.4V116.6c0-1.9,1-3.5,2.6-4.4
  l64.7-37.3c0.1-0.1,0.3-0.3,0.5-0.3l65-37.4c1.6-0.9,3.4-0.8,5,0l64.6,37.3h0.1l65.3,37.8c1.6,1,2.6,2.6,2.6,4.4l0.2,75.1v75.1
  c0,1.9-1,3.5-2.6,4.4l-64.8,37.4l-0.1,0.1l-65.3,37.6C191.2,346.7,190.4,347,189.6,347z M194.6,263.8l55,31.8v-63.4l-55-31.8V263.8z
   M129.6,151.1l54.9,31.8v-63.4l-54.9-31.8V151.1z M194.6,119.4v63.4l16.1-9.2l38.9-22.5l-0.1-63.5L194.6,119.4z M69.6,191.6
  l54.9,31.8l10.1-5.9l44.8-25.8l-5.7-3.3l-49.2-28.5L69.6,191.6z M129.6,232.1v63.4l54.9-31.8v-63.4l-47,27.2L129.6,232.1z
   M199.7,191.6l54.9,31.8l55-31.8l-54.9-31.8L199.7,191.6z M259.6,151.1l55,31.8v-63.4l-55-31.8V151.1z M134.6,79.1l54.9,31.8
  l55-31.8l-54.9-31.8L134.6,79.1z M64.5,119.4v63.4l55-31.7V87.8L64.5,119.4z M64.5,263.8l55,31.8v-63.4l-55-31.8V263.8z
   M134.7,304.3l54.9,31.8l55-31.8l-54.9-31.8L134.7,304.3z M259.7,232.1v63.4l55-31.7v-63.4L259.7,232.1z"/>
</svg>
